PathFileType	4	(X/Y/Z)	9_2_18_p0_0-285_filt_butterworth.trc
DataRate	CameraRate	NumFrames	NumMarkers	Units	OrigDataRate	OrigDataStartFrame	OrigNumFrames
57.0	57.0	5	27	m	57.0	178	285
Frame#	Time	RHip			RKnee			RAnkle			RBigToe			RSmallToe			RHeel			LHip			LKnee			LAnkle			LBigToe			LSmallToe			LHeel			Neck			Head			Nose			RShoulder			RElbow			RWrist			RThumb			RIndex			RPinky			LShoulder			LElbow			LWrist			LThumb			LIndex			LPinky			
		X1	Y1	Z1	X2	Y2	Z2	X3	Y3	Z3	X4	Y4	Z4	X5	Y5	Z5	X6	Y6	Z6	X7	Y7	Z7	X8	Y8	Z8	X9	Y9	Z9	X10	Y10	Z10	X11	Y11	Z11	X12	Y12	Z12	X13	Y13	Z13	X14	Y14	Z14	X15	Y15	Z15	X16	Y16	Z16	X17	Y17	Z17	X18	Y18	Z18	X19	Y19	Z19	X20	Y20	Z20	X21	Y21	Z21	X22	Y22	Z22	X23	Y23	Z23	X24	Y24	Z24	X25	Y25	Z25	X26	Y26	Z26	X27	Y27	Z27	
178	3.12280701754386	0.2912456427388964	0.9034217504514068	0.5639996263785678	0.2933094783650109	0.45898093639992116	0.5492406714842115	0.30188877769792866	0.03709251170941699	0.5995290788562455	0.27386126130951294	0.01737672772769497	0.435968538008193	0.3334092546424631	0.00945371937686447	0.4655889005830239	0.2779393504575724	-0.041290454684830134	0.6825714499242709	0.08271049514602674	0.9121549493486042	0.5613094492447827	0.08621282730585639	0.4486403085719153	0.5688411469538731	0.08721476860214196	0.0315264932175818	0.6013348056621307	0.10290299651058792	0.006847059666658113	0.45038181685384654	0.053286527520857316	0.027186145369093577	0.4619417671603598	0.095784694637534	-0.002489923772829014	0.6146214826474035	0.2030914261545956	1.3965005665606216	0.5444731232511482	0.18192549466278382	1.6577816621749648	0.40409876472480677	0.18193470455077962	1.512324749923155	0.36567667643919444	0.33688544452281577	1.3226112292001457	0.4961874338287864	0.37142954291854513	1.0609057462090516	0.49302174030592444	0.268772298369414	0.8600164209985377	0.40824277955777705	0.16161421841550377	0.8132457915663881	0.34221424159043934	0.15832265451955405	0.7862637730338596	0.35369715408812447	0.18469847864871602	0.7934358150427536	0.3642839704408495	0.06060520960903063	1.3192732227954553	0.5500863349205507	0.014112419429675668	1.067683066878741	0.5078014533956328	0.07979539355139208	0.8835884386922761	0.380088228000794	0.15080122754280917	0.8442222100404106	0.31733997524271096	0.15140476390048435	0.8214894099993372	0.3112831474265305	0.12032049024856614	0.7870550508341365	0.352224501884703	
179	3.1403508771929824	0.29132021604829755	0.9031116597896931	0.563953227936125	0.29366542330958884	0.4583580520315758	0.5505131901419832	0.3018833885157987	0.03709527354374986	0.5995239466752142	0.2739656905989025	0.01770579115818635	0.4351214265945586	0.332609140446144	0.00982504242370208	0.46318647877073865	0.2778602533546018	-0.04140912566593624	0.6827652955371672	0.08289702867498122	0.9119218257667554	0.5609573380418701	0.08605027173451771	0.448505117217528	0.5690319574659396	0.08721723203811291	0.031429269616395285	0.6012990493290378	0.1029211436263874	0.006858003398797316	0.45037308146676114	0.05336558049902798	0.0266711079260325	0.4620570131921161	0.09580382762262606	-0.002963212017985592	0.61449176675158	0.20307802189947527	1.396505157611682	0.5445020473950162	0.18199449587241398	1.6571346849383557	0.40434011456113905	0.1817636741870135	1.512284660556302	0.3656322642479646	0.3368784050801692	1.3226177624891289	0.4961711999566473	0.37203608338492916	1.0608183998478367	0.49515787354023366	0.2688287316027119	0.8600600718039165	0.4080804557510963	0.16060968947635862	0.8136460064142718	0.34479945320241506	0.1569444484696584	0.7868129936757677	0.3568517882735457	0.1833394709897475	0.7943877809303626	0.3670318663134994	0.06043246817064665	1.3197277780757626	0.5492204025958987	0.012245035393610125	1.066946324425527	0.510198153302596	0.07871334461291163	0.8833379336538525	0.3827066436398232	0.15050956369694543	0.8444709861089178	0.3182930672942636	0.15002357871729324	0.8218279498834837	0.31153763229187004	0.11944500207035971	0.7869971965535953	0.3521488597790984	
180	3.1578947368421053	0.29140958096130587	0.902876353456263	0.5638981867787702	0.29406378155016794	0.45766304308178307	0.5519503261956947	0.3018779203202407	0.037089047035685746	0.5995202360616432	0.274274785184329	0.017996631716745315	0.43460330420097765	0.3320088013019547	0.01018202910941643	0.46169432382556364	0.2776524251016856	-0.0417835726700942	0.6833425472455081	0.08303683776462699	0.9116508465828344	0.5607160874758002	0.08598386814046177	0.4484526024274321	0.5690427158416004	0.08721219395026217	0.03138565347579658	0.6013000392283759	0.1029439130814271	0.006879743195949702	0.4503362861680717	0.05338743279852869	0.026569250813183544	0.4620497295053643	0.09581663095789551	-0.0034267992200624903	0.6144068265408759	0.20306419083052746	1.3965049001826886	0.5445404333729209	0.18223272860571252	1.65643055715782	0.40533164119651865	0.18131164323488885	1.5121782039182716	0.3663762600988795	0.33691938711097885	1.3226524040738599	0.4959968108625611	0.3722993969881613	1.060703389382878	0.49678516290293495	0.2689489551791212	0.8601681334617104	0.4077164246357816	0.15886420354513736	0.8138716115613688	0.3475731635763967	0.15484983409572733	0.7875061734493567	0.3594920066554683	0.18242617603891403	0.7951026150410557	0.3702027666793133	0.060222092329034166	1.3202306693114787	0.5481410956477804	0.011124135132033012	1.0662697511198664	0.5124228528266942	0.07755195380446436	0.8830712378646596	0.38550910869228017	0.1499307776695221	0.8445362546490398	0.31989092355615517	0.1484002457038341	0.8218859946913868	0.3117170810865037	0.11836869824719122	0.7868556437049168	0.3521698114112129	
181	3.175438596491228	0.29151751680759674	0.9027556814587742	0.5638256371619521	0.29448908277649166	0.45696816689295305	0.5535029658676823	0.3018714823430358	0.037078558657181654	0.5995178865533902	0.2747482989832609	0.01821727088981582	0.4344975109595835	0.33165186971102256	0.010659592390080345	0.46135419371143876	0.2773252813827485	-0.042392187379674776	0.6842627658042669	0.08308388950258976	0.9113294309638424	0.5606554925719573	0.08605156204200609	0.4486536478072567	0.5688087830372713	0.08720157058671077	0.03140247234275113	0.6013376351350936	0.10296377072563283	0.0069080399018875555	0.4502780036315712	0.0533718095889177	0.02673304023397073	0.461964605552656	0.09582635364343713	-0.0038543848018815774	0.61434988225044	0.20305275652166127	1.3965014945422796	0.5445848905711312	0.1826186836928163	1.6557341746647398	0.4070361979196026	0.1806884861928107	1.5119510553038866	0.3682593428787256	0.3370229294625485	1.3227214089549626	0.4956275369646205	0.372103544408502	1.06058247507774	0.49730512997218523	0.2690483886253786	0.8603101147429315	0.4074124012034312	0.15658007260732024	0.8139066141032149	0.35006637822003384	0.15245854708894466	0.7884273288956496	0.3606884967162049	0.18195387502203308	0.7953266271214444	0.37318357181348805	0.060074470037983635	1.3205961188478872	0.5473934829859437	0.01087684342325533	1.0656873540570706	0.5141439774977545	0.07646928024738582	0.8828267509754122	0.38811862272102593	0.14915469271516868	0.8441878922307843	0.32190838655395204	0.14678102699749648	0.821720501662	0.3117801795594858	0.11730834046657854	0.7866272285052847	0.352374964397378	
182	3.192982456140351	0.29164838937489856	0.9027870358701783	0.5637352482914368	0.29488708954289855	0.4563663187829003	0.5549910308672453	0.30186461014232563	0.03706999286675401	0.5995206277909794	0.2753376633750356	0.018335954951961123	0.43480605471213474	0.3315515492877793	0.011276894834424046	0.462294790272739	0.27695479424873043	-0.043079907832456084	0.6852912197115129	0.08303950101554468	0.9109659281223429	0.5607864509180926	0.08625740213343984	0.44921277555191375	0.5683519559504187	0.0871878955621221	0.031466232720620047	0.6013990071967176	0.1029740306426985	0.0069385096137184535	0.4502168517343163	0.0533511310845064	0.026936565774427747	0.46187163163872647	0.0958376177967061	-0.004225517762299867	0.6142914264770898	0.20304491630836735	1.396497170088739	0.544628968779752	0.18306498289928688	1.6551399393244752	0.4091943112545955	0.18005890213627052	1.5115800265394324	0.37130114919073676	0.33711576937516163	1.3227759225807547	0.4953142355384468	0.3714030074660203	1.06045737203841	0.49643435627713695	0.2689586956038812	0.8604131567227644	0.40766874693864663	0.15411886574520164	0.8137994422389078	0.35183211061292585	0.15028576893251147	0.7896156642323321	0.3599351538438357	0.18172689362100825	0.7953530693418485	0.37494930285005773	0.06010347332344131	1.3207575165765537	0.5475445967313344	0.01143066252856202	1.0652286218692133	0.5151006820493725	0.07562745476682935	0.8826465041277991	0.3901521019480724	0.14829960649368595	0.8433028942173131	0.3240687658992782	0.1454297483971605	0.8214076107229785	0.3117119164234353	0.1164585912842373	0.7864103153375901	0.3525894068264489	
